HIERARCHY
ROOT Pelvis
{
	OFFSET 0.000000 0.000000 0.000000
	CHANNELS 6 Xposition Yposition Zposition Xrotation Yrotation Zrotation
	JOINT LeftUpLeg_virtual
	{
		OFFSET 0.000000 0.000000 0.000000
		CHANNELS 3 Xrotation Yrotation Zrotation
		JOINT LeftUpLeg
		{
			OFFSET 18.735201 -5.666702 -4.541200
			CHANNELS 3 Xrotation Yrotation Zrotation
			JOINT LeftLeg
			{
				OFFSET -0.021200 -31.938179 0.493100
				CHANNELS 3 Xrotation Yrotation Zrotation
				JOINT LeftFoot
				{
					OFFSET 0.021200 -31.938179 -4.336299
					CHANNELS 3 Xrotation Yrotation Zrotation
					JOINT LeftToeBase
					{
						OFFSET 0.943001 -26.722000 15.023500
						CHANNELS 3 Xrotation Yrotation Zrotation
						End Site
						{
							OFFSET 0 0 0
						}
					}
				}
			}
		}
	}
	JOINT RightUpLeg_virtual
	{
		OFFSET 0.000000 0.000000 0.000000
		CHANNELS 3 Xrotation Yrotation Zrotation
		JOINT RightUpLeg
		{
			OFFSET -18.735201 -5.666702 -4.541200
			CHANNELS 3 Xrotation Yrotation Zrotation
			JOINT RightLeg
			{
				OFFSET 0.018946 -31.938133 0.493100
				CHANNELS 3 Xrotation Yrotation Zrotation
				JOINT RightFoot
				{
					OFFSET -0.018946 -31.938126 -4.336299
					CHANNELS 3 Xrotation Yrotation Zrotation
					JOINT RightToeBase
					{
						OFFSET -0.943001 -26.722004 15.023500
						CHANNELS 3 Xrotation Yrotation Zrotation
						End Site
						{
							OFFSET 0 0 0
						}
					}
				}
			}
		}
	}
	JOINT Hips_virtual
	{
		OFFSET 0.000000 0.000000 0.000000
		CHANNELS 3 Xrotation Yrotation Zrotation
		JOINT Hips
		{
			OFFSET -0.000000 -0.000000 -0.000000
			CHANNELS 3 Xrotation Yrotation Zrotation
			JOINT Spine
			{
				OFFSET 0.000000 10.199997 -0.299500
				CHANNELS 3 Xrotation Yrotation Zrotation
				JOINT Spine1
				{
					OFFSET 0.000000 11.900002 -1.516600
					CHANNELS 3 Xrotation Yrotation Zrotation
					JOINT Spine2
					{
						OFFSET 0.000000 13.600006 -2.842500
						CHANNELS 3 Xrotation Yrotation Zrotation
						JOINT Neck_virtual
						{
							OFFSET 0.000000 0.000000 0.000000
							CHANNELS 3 Xrotation Yrotation Zrotation
							JOINT Neck
							{
								OFFSET 0.000000 9.624100 -2.890100
								CHANNELS 3 Xrotation Yrotation Zrotation
								JOINT Head
								{
									OFFSET 0.000000 14.068802 -1.351900
									CHANNELS 3 Xrotation Yrotation Zrotation
									End Site
									{
										OFFSET 0 0 0
									}
								}
							}
						}
						JOINT LeftShoulder_virtual
						{
							OFFSET 0.000000 0.000000 0.000000
							CHANNELS 3 Xrotation Yrotation Zrotation
							JOINT LeftShoulder
							{
								OFFSET 15.263000 10.923401 -0.547700
								CHANNELS 3 Xrotation Yrotation Zrotation
								JOINT LeftArm
								{
									OFFSET 25.438599 -2.830597 -13.032500
									CHANNELS 3 Xrotation Yrotation Zrotation
									JOINT LeftForeArm
									{
										OFFSET 29.960503 0.000000 0.000000
										CHANNELS 3 Xrotation Yrotation Zrotation
										JOINT LeftHand
										{
											OFFSET 27.849251 0.000000 0.000000
											CHANNELS 3 Xrotation Yrotation Zrotation
											End Site
											{
												OFFSET 0 0 0
											}
										}
									}
								}
							}
						}
						JOINT RightShoulder_virtual
						{
							OFFSET 0.000000 0.000000 0.000000
							CHANNELS 3 Xrotation Yrotation Zrotation
							JOINT RightShoulder
							{
								OFFSET -15.263000 10.923401 -0.547700
								CHANNELS 3 Xrotation Yrotation Zrotation
								JOINT RightArm
								{
									OFFSET -25.438599 -2.830597 -13.032500
									CHANNELS 3 Xrotation Yrotation Zrotation
									JOINT RightForeArm
									{
										OFFSET -29.960503 0.000000 0.000000
										CHANNELS 3 Xrotation Yrotation Zrotation
										JOINT RightHand
										{
											OFFSET -27.849251 0.000000 0.000000
											CHANNELS 3 Xrotation Yrotation Zrotation
											End Site
											{
												OFFSET 0 0 0
											}
										}
									}
								}
							}
						}
					}
				}
			}
		}
	}
}
MOTION
Frames: 11
Frame Time: 0.03333333
-3.637858 90.279144 14.235912 0.000000 0.000000 0.000000 6.413580 -20.928856 1.455717 -36.838711 13.609586 17.468369 57.145959 12.095054 -3.087567 4.076605 3.486877 -9.241866 0.000000 0.000000 0.000000 6.941669 -19.929881 1.761724 -35.034861 2.074111 1.034417 37.159460 -3.180385 2.227668 -11.708877 -6.837969 -0.187454 0.000000 0.000000 0.000000 6.693703 -19.102885 1.591318 -0.759562 0.105325 0.028689 6.396915 2.489770 4.701474 6.409759 1.595100 -0.002130 0.000000 0.000000 0.000000 3.903724 2.546594 -0.337930 2.728512 -0.190372 0.909903 0.000000 0.000000 0.000000 5.391183 2.521797 -0.571629 0.927861 -12.377199 -12.758101 -26.805199 -8.972423 -61.728142 -6.922874 -16.535618 -9.971191 0.000000 0.000000 0.000000 3.935814 2.921676 -0.196556 10.489301 23.555041 2.403370 -18.154571 4.317677 62.299733 4.857117 18.751147 0.728464 0.000000 0.000000 0.000000 
-3.841451 90.332359 15.031025 0.000000 0.000000 0.000000 6.342173 -20.581249 1.461463 -37.637279 12.340626 17.049978 56.724557 11.553012 -3.325475 2.762211 1.936164 -9.919753 0.000000 0.000000 0.000000 7.003288 -19.473986 1.651815 -35.712655 2.115889 0.990355 38.518934 -2.506617 1.865067 -10.418453 -6.301557 1.343836 0.000000 0.000000 0.000000 6.705090 -18.375926 1.587696 -0.745494 0.103660 0.039092 6.403754 2.634007 4.878031 6.352655 1.624079 0.002658 0.000000 0.000000 0.000000 4.000515 2.536153 -0.362495 2.743610 -0.230865 0.889918 0.000000 0.000000 0.000000 5.308664 2.510523 -0.564357 1.008591 -12.296177 -12.636974 -26.884366 -8.858129 -61.867369 -6.956602 -16.879409 -9.924479 0.000000 0.000000 0.000000 3.834393 2.962554 -0.132298 10.454197 23.583023 2.440729 -18.266129 4.244762 62.448174 4.834817 18.026582 0.673191 0.000000 0.000000 0.000000 
-4.143834 90.448921 15.908356 0.000000 0.000000 0.000000 6.625317 -19.613952 1.673650 -38.967534 10.844403 15.714874 54.510910 11.210635 -4.048633 2.022103 0.484166 -10.412086 0.000000 0.000000 0.000000 7.199137 -18.613843 1.824075 -36.276846 1.931299 0.618539 40.285798 -1.731673 1.178472 -10.315115 -5.356684 2.307297 0.000000 0.000000 0.000000 6.977711 -17.395174 1.852497 -0.742366 0.073437 0.038388 6.472238 2.752608 5.059242 6.070654 1.659280 0.105503 0.000000 0.000000 0.000000 4.050413 2.597115 -0.330381 2.740558 -0.243630 0.842976 0.000000 0.000000 0.000000 4.997053 2.553100 -0.544152 1.002884 -12.302086 -12.527709 -26.248347 -8.591125 -62.153738 -7.132236 -17.469252 -9.940640 0.000000 0.000000 0.000000 3.586383 3.068691 -0.030458 10.317002 23.443055 2.690654 -18.148885 3.331370 62.343679 4.738858 17.541297 0.528029 0.000000 0.000000 0.000000 
-4.512908 90.582962 16.681604 0.000000 0.000000 0.000000 7.094985 -18.114502 2.035843 -40.307125 9.332083 13.566425 50.285646 11.290317 -4.890546 2.417382 -0.720668 -10.511236 0.000000 0.000000 0.000000 7.463150 -17.230696 2.196096 -36.145867 1.355402 -0.239256 41.865586 -1.199772 0.387431 -12.572282 -4.356434 2.484768 0.000000 0.000000 0.000000 7.393070 -16.335099 2.270204 -0.746935 0.030163 0.017844 6.601053 2.774422 5.224769 5.613478 1.680703 0.283142 0.000000 0.000000 0.000000 4.052773 2.694682 -0.250340 2.712148 -0.217614 0.778420 0.000000 0.000000 0.000000 4.510107 2.627008 -0.517451 0.910420 -12.367852 -12.458610 -25.001129 -8.260738 -62.448604 -7.417404 -18.239412 -9.990717 0.000000 0.000000 0.000000 3.246171 3.189957 0.088589 10.145277 23.088684 3.012358 -17.814161 1.837578 62.107948 4.582154 17.400906 0.316474 0.000000 0.000000 0.000000 
-4.824887 90.656876 17.515717 0.000000 0.000000 0.000000 7.558993 -16.434659 2.431136 -41.199896 7.889090 10.829888 44.149499 11.913637 -5.457065 4.018891 -1.546431 -10.087538 0.000000 0.000000 0.000000 7.664535 -15.576634 2.627372 -35.254428 0.541615 -1.450242 43.049740 -0.775270 -0.388760 -15.702625 -3.210119 2.769256 0.000000 0.000000 0.000000 7.780981 -15.371978 2.716905 -0.746375 0.002518 -0.007400 6.790193 2.692594 5.410952 5.051677 1.682739 0.474931 0.000000 0.000000 0.000000 3.940188 2.788465 -0.146877 2.651621 -0.147335 0.702910 0.000000 0.000000 0.000000 3.946462 2.704363 -0.475974 0.770331 -12.432979 -12.437992 -23.293780 -8.009208 -62.545811 -7.766630 -19.162722 -10.031017 0.000000 0.000000 0.000000 2.902645 3.277747 0.183155 9.987044 22.488492 3.339118 -17.269718 0.091050 61.884902 4.362101 17.514529 0.081471 0.000000 0.000000 0.000000 
-5.094801 90.648209 18.350405 0.000000 0.000000 0.000000 7.834062 -15.053078 2.719583 -41.199073 6.445481 7.868350 36.786764 12.934956 -5.498005 5.985640 -2.105869 -9.311801 0.000000 0.000000 0.000000 7.669493 -14.218500 2.953618 -34.028627 -0.286101 -2.740909 43.800381 -0.248602 -1.144819 -17.817629 -1.854123 3.837906 0.000000 0.000000 0.000000 7.991018 -14.513783 3.022144 -0.761247 0.012682 -0.023522 6.980285 2.587408 5.650261 4.504998 1.703580 0.629958 0.000000 0.000000 0.000000 3.674259 2.853247 -0.054816 2.562936 -0.029426 0.618377 0.000000 0.000000 0.000000 3.424695 2.781767 -0.405374 0.630887 -12.431778 -12.445417 -21.202184 -7.927770 -62.271081 -8.167005 -20.336369 -10.063632 0.000000 0.000000 0.000000 2.623233 3.314777 0.224403 9.870714 21.718315 3.627256 -16.544555 -1.554697 61.720390 4.104120 17.780183 -0.144070 0.000000 0.000000 0.000000 
-5.262651 90.571617 19.291075 0.000000 0.000000 0.000000 7.888477 -14.206428 2.818222 -40.544874 4.697732 5.209420 29.228118 13.904360 -5.084838 7.567079 -2.778330 -8.771485 0.000000 0.000000 0.000000 7.499737 -13.347279 3.037575 -32.658474 -1.032759 -3.856868 44.052483 0.200382 -1.879600 -18.796926 -0.509541 5.343490 0.000000 0.000000 0.000000 7.981241 -13.954421 3.114692 -0.778052 0.065580 -0.016678 7.128236 2.550708 5.937530 4.084613 1.775671 0.736117 0.000000 0.000000 0.000000 3.283999 2.902855 0.004524 2.461252 0.130795 0.533527 0.000000 0.000000 0.000000 2.995317 2.877728 -0.297227 0.513136 -12.323320 -12.467613 -18.737900 -8.060802 -61.565283 -8.587955 -21.779373 -10.076944 0.000000 0.000000 0.000000 2.420186 3.323772 0.207432 9.748877 20.846827 3.922202 -15.597966 -2.945390 61.610731 3.820575 18.228072 -0.348098 0.000000 0.000000 0.000000 
-5.309242 90.352455 20.267605 0.000000 0.000000 0.000000 7.725958 -13.842303 2.663502 -39.769108 2.533733 3.362428 22.856974 14.509315 -4.578347 8.614683 -3.664787 -8.545963 0.000000 0.000000 0.000000 7.226486 -13.014681 2.858188 -30.969649 -1.825376 -4.390789 43.830290 0.202288 -2.432926 -20.054240 0.420236 6.500343 0.000000 0.000000 0.000000 7.811681 -13.781559 2.960016 -0.808436 0.131212 -0.017609 7.158830 2.661666 6.208851 3.799715 1.915487 0.779147 0.000000 0.000000 0.000000 2.790826 2.961251 0.022471 2.359204 0.315738 0.446038 0.000000 0.000000 0.000000 2.660719 3.006574 -0.145124 0.419076 -12.145672 -12.543017 -16.106986 -8.312148 -60.453383 -8.944667 -23.154061 -9.990128 0.000000 0.000000 0.000000 2.289682 3.339988 0.134931 9.528135 19.984702 4.404273 -14.317986 -4.079135 61.426432 3.518412 18.967804 -0.509935 0.000000 0.000000 0.000000 
-5.316118 90.033432 21.399387 0.000000 0.000000 0.000000 7.390065 -13.862794 2.300697 -39.357551 0.216796 2.560300 18.758126 14.719568 -4.290811 9.513535 -4.635153 -8.581130 0.000000 0.000000 0.000000 6.923926 -13.181339 2.455352 -28.807330 -2.715072 -4.242559 43.055976 -0.268345 -2.688151 -22.258055 0.826710 7.091928 0.000000 0.000000 0.000000 7.600932 -13.899624 2.584977 -0.825875 0.164581 -0.044177 7.019961 2.894086 6.353505 3.637577 2.101915 0.760262 0.000000 0.000000 0.000000 2.307357 3.051381 -0.000707 2.267809 0.496308 0.367902 0.000000 0.000000 0.000000 2.441902 3.173321 0.024459 0.335507 -12.010957 -12.712653 -13.638881 -8.580851 -59.003880 -9.189195 -24.009998 -9.737848 0.000000 0.000000 0.000000 2.206187 3.394217 0.024232 9.187139 19.177974 5.134771 -12.556221 -4.961311 61.084540 3.210378 20.290913 -0.611803 0.000000 0.000000 0.000000 
-5.254910 89.696808 22.829977 0.000000 0.000000 0.000000 6.947182 -14.187521 1.814660 -39.520735 -1.860422 2.829764 16.923144 14.667493 -4.327959 10.511556 -5.420358 -8.677657 0.000000 0.000000 0.000000 6.615912 -13.646547 1.916294 -26.139301 -3.586693 -3.626128 41.611930 -0.963827 -2.761848 -24.537668 0.924123 7.542055 0.000000 0.000000 0.000000 7.324514 -14.267407 2.072096 -0.823511 0.169732 -0.053851 6.740823 3.222176 6.248530 3.586061 2.331301 0.694906 0.000000 0.000000 0.000000 1.912237 3.195777 -0.055075 2.194954 0.648197 0.298678 0.000000 0.000000 0.000000 2.330918 3.370498 0.192434 0.248671 -11.989898 -13.009976 -11.581974 -8.798949 -57.253600 -9.297318 -24.079064 -9.264644 0.000000 0.000000 0.000000 2.159231 3.513054 -0.090373 8.738382 18.404416 6.111960 -10.153024 -5.646603 60.626911 2.952989 22.331490 -0.693575 0.000000 0.000000 0.000000 
-5.240883 89.372360 24.554909 0.000000 0.000000 0.000000 6.491130 -14.731357 1.310985 -39.892983 -3.525040 3.947770 16.750518 14.409013 -4.659742 11.752812 -5.740224 -8.554427 0.000000 0.000000 0.000000 6.307574 -14.167014 1.364965 -23.065834 -4.203627 -2.652159 39.428654 -1.358440 -2.920653 -25.734672 0.937477 8.276842 0.000000 0.000000 0.000000 6.928351 -14.663388 1.520003 -0.828289 0.155079 -0.042659 6.271279 3.627376 5.885013 3.582271 2.582280 0.570982 0.000000 0.000000 0.000000 1.599202 3.389243 -0.125057 2.132406 0.752664 0.227649 0.000000 0.000000 0.000000 2.311699 3.569582 0.339466 0.162199 -12.100034 -13.426212 -9.987345 -8.820674 -55.225324 -9.313693 -23.574284 -8.625901 0.000000 0.000000 0.000000 2.226892 3.690755 -0.199275 8.271237 17.588557 7.192820 -7.194973 -6.042706 60.223410 2.811600 25.034108 -0.828881 0.000000 0.000000 0.000000 
